<?xml version="1.0" encoding="utf-8"?>
<!-- Generator: Adobe Illustrator 22.0.1, SVG Export Plug-In . SVG Version: 6.00 Build 0)  -->
<svg version="1.1" id="Layer_1" xmlns="http://www.w3.org/2000/svg" xmlns:xlink="http://www.w3.org/1999/xlink" x="0px" y="0px"
	 viewBox="0 0 300 200" style="enable-background:new 0 0 300 200;" xml:space="preserve">
<style type="text/css">
	.st0{fill:#FFFFFF;}
</style>
<g>
	<path class="st0" d="M279.4,90.1c0.6,0,1,0,1.1-0.6c0.1-0.5-0.4-0.5-0.9-0.5h-1.2l-0.2,1L279.4,90.1L279.4,90.1z M281,93.3h-1.3
		l-0.8-2.2h-0.8l-0.4,2.2h-1.1l0.8-5.3h2.6c1.1,0,1.7,0.4,1.5,1.6c-0.1,0.9-0.7,1.4-1.4,1.4L281,93.3z M282.8,90.7
		c0.4-2.2-1-3.7-3.1-3.7c-2.2,0-3.9,1.5-4.3,3.7c-0.3,2.2,1,3.7,3.1,3.7C280.7,94.4,282.5,93,282.8,90.7 M274.1,90.7
		c0.4-2.8,3-5,5.8-5s4.7,2.2,4.2,5c-0.4,2.8-3,5-5.8,5C275.5,95.7,273.6,93.5,274.1,90.7"/>
	<path class="st0" d="M47.1,100.1L44,113.4h10.9c-1,7.2-18.7,10.3-16-7.1C40.8,94.2,56,87.6,59.4,97L78,92.4
		c-6.4-27.8-56-22.2-59.9,15c-1.9,18.1,11.6,28,27.3,27.7c11.2-0.2,20-4.2,24.3-7.3l6.5-27.7C76.2,100.1,47.1,100.1,47.1,100.1z"/>
	<polygon class="st0" points="81.2,95 72.1,133.6 91,133.6 100.1,95 	"/>
	<polygon class="st0" points="109.2,70.9 94.4,133.6 113.3,133.6 128.1,70.9 	"/>
	<polygon class="st0" points="104.4,77.2 85.5,77.1 82.1,91.3 102.2,86.3 	"/>
	<path class="st0" d="M167.5,108.9l-10.5-0.1C158.6,103.4,168.3,102.2,167.5,108.9 M237.4,101.1c0.7-2.8,1.5-6.1,1.5-6.1h-6.5
		l4-16.8h-18.9l-4,16.8H210l4-16.8h-18.9L191.2,95h-5.7l-2.5,10.3c-2.1-8.9-10.5-13.1-18.4-13.1c-10.8,0-19.2,6.9-23,16.3l8.8-37.5
		h-18.9l-14.8,62.8h18.9l3.9-16.5c-0.4,7.1,2.8,18.5,19,18.5c8.5,0,19.5-5.6,22.1-13.3l-14.8-2.6c-1.7,2.2-4.1,3.4-6.6,3.4
		c-4.1,0-5.2-3.5-4.4-6.6h27.5c0.3-0.9,0.9-2,1.1-5.3c0.1-1,0-2,0-2.9h4.6l-6,25.3h19l6-25.3h3.4l-5.9,25.3h18.9l6-25.3h3.7
		 M258.9,109h-10.5C250.1,103.6,259.8,102.3,258.9,109 M233.1,108.4C233.1,108.4,233.1,108.5,233.1,108.4c-0.9,2.3-1.6,4.7-1.9,7.2
		l0,0c-0.9,6.8,1.3,20.1,18.9,20.1c8.5,0,19.5-5.6,22.1-13.3l-14.8-2.6c-1.7,2.1-4.1,3.4-6.6,3.4c-4.1,0-5.2-3.5-4.4-6.6l0,0h27.5
		c0.2-0.9,0.8-2,1-5.4c0.9-13.1-9.4-19.1-18.9-19.1c-7.7,0-14.2,3.5-18.6,8.9"/>
</g>
</svg>
