<?xml version="1.0" encoding="utf-8"?>
<!-- Generator: Adobe Illustrator 16.0.0, SVG Export Plug-In . SVG Version: 6.00 Build 0)  -->
<!DOCTYPE svg PUBLIC "-//W3C//DTD SVG 1.1//EN" "http://www.w3.org/Graphics/SVG/1.1/DTD/svg11.dtd">
<svg version="1.1" id="Layer_1" xmlns="http://www.w3.org/2000/svg" xmlns:xlink="http://www.w3.org/1999/xlink" x="0px" y="0px"
	 width="251.579px" height="61.322px" viewBox="16.933 85.889 251.579 61.322"
	 enable-background="new 16.933 85.889 251.579 61.322" xml:space="preserve">
<g>
	<path fill="#FFFFFF" d="M263.996,104.031c0.566,0,0.945,0,1.039-0.566c0.095-0.473-0.377-0.473-0.85-0.473h-1.135l-0.188,0.945
		L263.996,104.031L263.996,104.031z M265.507,107.054h-1.229l-0.756-2.078h-0.756l-0.377,2.078h-1.04l0.756-5.008h2.456
		c1.04,0,1.607,0.378,1.418,1.513c-0.095,0.85-0.662,1.322-1.322,1.322L265.507,107.054z M267.208,104.598
		c0.377-2.079-0.945-3.496-2.93-3.496c-2.078,0-3.685,1.417-4.063,3.496c-0.283,2.078,0.945,3.496,2.93,3.496
		C265.224,108.094,266.925,106.771,267.208,104.598 M258.988,104.598c0.378-2.646,2.834-4.725,5.48-4.725
		c2.646,0,4.441,2.079,3.969,4.725c-0.379,2.646-2.835,4.725-5.48,4.725C260.31,109.323,258.515,107.243,258.988,104.598"/>
	<path fill="#FFFFFF" d="M44.503,113.48l-2.929,12.566h10.299c-0.945,6.803-17.669,9.732-15.118-6.709
		c1.795-11.433,16.157-17.669,19.37-8.787l17.575-4.346c-6.047-26.268-52.913-20.977-56.598,14.173
		c-1.795,17.102,10.96,26.456,25.795,26.173c10.583-0.189,18.897-3.969,22.96-6.897l6.142-26.173H44.503z"/>
	<polygon fill="#FFFFFF" points="76.723,108.66 68.125,145.132 85.983,145.132 94.581,108.66 	"/>
	<polygon fill="#FFFFFF" points="103.179,85.889 89.195,145.132 107.053,145.132 121.038,85.889 	"/>
	<polygon fill="#FFFFFF" points="98.644,91.842 80.786,91.747 77.574,105.164 96.565,100.441 	"/>
	<path fill="#FFFFFF" d="M158.265,121.794l-9.921-0.095C149.856,116.598,159.021,115.464,158.265,121.794 M224.312,114.424
		c0.66-2.646,1.416-5.764,1.416-5.764h-6.141l3.779-15.873h-17.858l-3.779,15.873h-3.308l3.78-15.873h-17.858l-3.685,15.873h-5.386
		l-2.362,9.732c-1.984-8.409-9.921-12.378-17.386-12.378c-10.205,0-18.141,6.52-21.732,15.401l8.315-35.433H124.25l-13.984,59.338
		h17.858l3.685-15.591c-0.378,6.709,2.646,17.48,17.952,17.48c8.031,0,18.425-5.291,20.882-12.566l-13.984-2.457
		c-1.606,2.079-3.874,3.213-6.235,3.213c-3.875,0-4.914-3.308-4.158-6.236h25.984c0.283-0.851,0.85-1.89,1.039-5.008
		c0.094-0.945,0-1.89,0-2.74h4.346l-5.668,23.905h17.951l5.67-23.905h3.213l-5.575,23.905h17.858l5.669-23.905h3.496
		 M244.626,121.889h-9.922C236.311,116.786,245.476,115.558,244.626,121.889 M220.249,121.322
		C220.249,121.322,220.249,121.416,220.249,121.322c-0.851,2.174-1.512,4.441-1.796,6.804l0,0
		c-0.85,6.425,1.229,18.991,17.858,18.991c8.031,0,18.425-5.291,20.882-12.566l-13.984-2.457c-1.605,1.984-3.873,3.213-6.236,3.213
		c-3.873,0-4.913-3.307-4.157-6.236l0,0h25.983c0.189-0.851,0.756-1.89,0.945-5.103c0.851-12.377-8.881-18.047-17.857-18.047
		c-7.275,0-13.418,3.308-17.574,8.41"/>
</g>
</svg>
