<?xml version="1.0" encoding="utf-8"?>
<!-- Generator: Adobe Illustrator 16.0.0, SVG Export Plug-In . SVG Version: 6.00 Build 0)  -->
<!DOCTYPE svg PUBLIC "-//W3C//DTD SVG 1.1//EN" "http://www.w3.org/Graphics/SVG/1.1/DTD/svg11.dtd">
<svg version="1.1" id="Capa_1" xmlns="http://www.w3.org/2000/svg" xmlns:xlink="http://www.w3.org/1999/xlink" x="0px" y="0px"
	 width="334.845px" height="241.832px" viewBox="0 123.305 334.845 241.832" enable-background="new 0 123.305 334.845 241.832"
	 xml:space="preserve">
<g>
	<path fill="#F3D420" d="M71.388,349.972L54.735,204.361c-3.819-33.389,27.02-52.182,40.896-53.769l-55.86,6.389
		c-13.876,1.586-24.17,11.223-22.993,21.524l20.063,175.418L71.388,349.972z"/>
</g>
<g>
	<path fill="#F3D420" d="M257.773,349.952L241.12,204.341c-3.819-33.389,26.048-52.07,39.511-53.61l-54.193,6.198
		c-13.462,1.54-23.42,11.138-22.243,21.438l20.063,175.418L257.773,349.952z"/>
</g>
<g>
	<g>
		<path d="M130.218,216.317H37.205v-37.205c0-10.25,8.334-18.603,18.603-18.603h55.808v-37.204H55.808
			C25.039,123.305,0,148.344,0,179.112v167.423c0,10.269,8.315,18.603,18.603,18.603h111.615c10.287,0,18.603-8.334,18.603-18.603
			V234.92C148.82,224.651,140.505,216.317,130.218,216.317z M111.615,327.932h-74.41v-74.41h74.41V327.932z"/>
	</g>
</g>
<g>
	<g>
		<path d="M316.242,216.317H223.23v-37.205c0-10.25,8.334-18.603,18.603-18.603h55.808v-37.204h-55.808
			c-30.769,0-55.808,25.038-55.808,55.807v167.423c0,10.269,8.315,18.603,18.603,18.603h111.614
			c10.289,0,18.604-8.334,18.604-18.603V234.92C334.845,224.651,326.531,216.317,316.242,216.317z M297.64,327.932h-74.41v-74.41
			h74.41V327.932z"/>
	</g>
</g>
</svg>
