<svg xmlns="http://www.w3.org/2000/svg" viewBox="0 0 766.44 267.5"><defs><style>.cls-1{fill:#fff;}</style></defs><title>Asset 1</title><g id="Layer_2" data-name="Layer 2"><g id="Layer_1-2" data-name="Layer 1"><path class="cls-1" d="M745.23,91.72c-4.66-3.37-9.94-3.34-15.06-2.66-7.31,1-13.55,4.8-19.37,9.16-4.27,3.19-8.4,6.57-12.52,10q-6.49,5.35-12.83,10.9c-2.66,2.33-5.13,4.87-7.75,7.25q-8.07,7.32-16.21,14.57c-4.2,3.73-8.39,7.49-12.74,11-4.65,3.79-9.45,7.38-14.24,11-2.42,1.83-5,3.51-7.44,5.25a1.83,1.83,0,0,1,.19-1.44c5.68-8.83,11.54-17.55,17-26.52,3.94-6.49,7.85-13.08,8.93-20.85.38-2.7-.57-7.75-3.95-9.32a11.92,11.92,0,0,0-8.29-.37c-7.14,1.86-11.9,6.68-15.82,12.55-3.6,5.37-7,10.87-10.68,16.19-3.14,4.55-6.3,9.12-9.87,13.33-3.06,3.6-6.77,6.61-11.52,8-6.83,1.91-10.41-1.45-8.64-8.3,1.48-5.73,4.74-10.56,8.43-15a82.07,82.07,0,0,1,14.78-13.94,101.6,101.6,0,0,1,20.52-12.07,85,85,0,0,0,9.27-4.47c2.92-1.7,3.65-4.7,3.1-7.83-.49-2.82-2.78-4.11-5.35-4.62a36,36,0,0,0-14.93.6,79.6,79.6,0,0,0-21.7,8.54,108.89,108.89,0,0,0-23.66,17.56c-3.71,3.68-7.28,7.52-10.67,11.49a67.08,67.08,0,0,0-12.56,21.22c-.79,2.24-1.48,4.81-3,6.45a91.17,91.17,0,0,1-21.89,16.31c-2.09,1.16-4.28,2.13-6.81,3.37.33-.64.4-.83.51-1,5-7.15,10.19-14.22,15.09-21.46,6.72-9.93,13.38-19.91,18.15-31,2.58-6,5.18-12,4.89-18.83-.26-6.22-4.67-8.59-9.72-7.83-8.54,1.3-14.9,6.26-20.11,12.92-6,7.66-10.44,16.24-14.63,24.92a54.79,54.79,0,0,1-13.29,17.53,22.28,22.28,0,0,1-9.41,5.33c-4,1-7.57.36-7-5.23a26.39,26.39,0,0,1,2.68-9,81.2,81.2,0,0,1,18.82-24.3,79,79,0,0,1,18-12.73,7.39,7.39,0,0,0,3.26-3.19c1.53-3.35-.42-8-3.69-9.79-4.34-2.31-8.81-2-13.14-.27-7.34,2.87-14.49,6.21-21.86,9a38.38,38.38,0,0,1-22.36,1.6,89.47,89.47,0,0,1-11.45-3.73c-6.09-2.27-11.73-2.32-17.13,2-4.44,3.52-6.52,8-7.78,13.46a103.19,103.19,0,0,1-17.1,38c-2.49,3.41-5.24,6.62-9.16,8.48-2.78,1.32-7.17,1-9.12-1.91-1.56-2.33-1.42-5-1-7.49,1.3-7.81,5.16-14.55,9.59-21,2.67-3.88,5.48-7.68,8.5-11.29a68,68,0,0,1,7.71-7.84c2.43-2.09,5.3-3.67,7.88-5.59a6.13,6.13,0,0,0,2.69-6.39c-.51-2.43-1.74-4.66-4.38-5a40.39,40.39,0,0,0-9.87-.38c-6,.72-11.25,3.45-16.38,6.48a76.26,76.26,0,0,0-18.78,16.09A125.83,125.83,0,0,0,370,133.83a64.94,64.94,0,0,0-8.65,21.84c-.46,2.18-.24,4.67-2.57,6.11-1.37.85-2.62,1.91-4,2.75-4.26,2.6-8.68,3.26-13.27.87-5.12-2.68-6.94-7.31-7.37-12.7-.18-2.37-.21-4.61,2.07-6.41a95.4,95.4,0,0,0,8.91-8c6.41-6.51,12.82-13,19-19.79,6.32-7,12.5-14.07,18.43-21.36,5-6.17,9.8-12.55,14.35-19.07a161.58,161.58,0,0,0,18.71-34.42c3.11-8.13,5.46-16.45,5.07-25.23-.34-7.57-4.17-12.26-12.46-12.39-6.23-.09-11.7,2.2-17.08,5-8.31,4.3-15.42,10.23-22.22,16.5a189.48,189.48,0,0,0-13.54,13.94q-8.7,9.84-16.86,20.16a174.73,174.73,0,0,0-19,30.42c-3.42,6.79-6.51,13.77-9.4,20.81a180.87,180.87,0,0,0-9.5,30.39c-.61,2.83-.51,6.14-3.65,7.87a12.7,12.7,0,0,0-1.79,1.32c-6.56,5.27-13.18,10.38-22,11.39-4.3.5-8.39.1-12-2.49-2.47-1.78-3.6-4.44-4.21-7.38-.55-2.64,1.37-3.61,2.87-5.08,4.13-4.06,8.16-8.24,12.09-12.49,4.94-5.33,10-10.59,14.54-16.22,6.38-7.85,12.71-15.78,18.46-24.09C311.18,87,317,77.59,322.56,68.08c5.25-9,9.19-18.67,10.21-29.18.46-4.71-.47-9.31-5.28-11.73a18.37,18.37,0,0,0-6.51-1.8c-6.8-.57-13.11,1.55-19.2,4.29-10.28,4.64-19,11.51-27.26,19.08a149.52,149.52,0,0,0-22.73,26.71c-3.63,5.41-6.93,11.06-10.22,16.69a169.06,169.06,0,0,0-13.39,29.64,150.19,150.19,0,0,0-7.24,29c-.28,2-.31,4.21-2.33,5.59-4.27,2.92-8.37,6.11-12.78,8.78a37.87,37.87,0,0,1-16.29,5c-4.83.45-9.07-.87-12.32-5.1a5.88,5.88,0,0,0,.59-.32c5-3.41,10.12-6.7,15-10.27a71.29,71.29,0,0,0,17.51-18c5.95-8.92,9.11-18.63,7.16-29.4A16,16,0,0,0,206.74,94.1c-4.66-1.69-9.37-1.4-14.05-.45a51.41,51.41,0,0,0-16.22,6.65A73.64,73.64,0,0,0,157,117a71.84,71.84,0,0,0-11,18.09A60.6,60.6,0,0,0,141,156.66c-.06,2.75,0,5.5,0,8.28-.67.25-1.24.44-1.79.66-4.49,1.82-9.17,3.28-12.54,7.13a9.23,9.23,0,0,0-1.32,8.24c1.16,2.79,3.27,4,6.28,4.22,5,.3,9.65-.88,14.34-2.5a23.33,23.33,0,0,0,9.37,7.81c9.7,5,20,5.4,30.46,3.56,10.13-1.78,19.27-6,27.72-11.78,3.32-2.27,6.44-4.84,9.69-7.29,1.28,3.67,5.49,9.11,9.33,11.64a39,39,0,0,0,30.61,5.71C272.3,190.42,280.33,186,288,181c3.88-2.53,7.55-5.38,11.48-8.2a14.54,14.54,0,0,1,.67,1.67,29.7,29.7,0,0,0,7.2,12.76,26.74,26.74,0,0,0,23.36,8.68c9.69-1,17.81-5.07,25-11.26,2.37-2,4.62-4.19,7-6.32,2.64,7.56,5.88,10.56,10,13.16,5.89,3.68,12.37,4.18,19,3,9.47-1.63,17.46-6.22,24.5-12.6,8.36-7.59,14.71-16.73,20.07-26.57a162.09,162.09,0,0,0,13.37-32.93c.84-2.92,2.2-3.79,5-2.74a37.08,37.08,0,0,0,15.89,2.71,13.5,13.5,0,0,1,2.06.19c-1,.79-1.74,1.27-2.37,1.87-8,7.54-15.07,15.79-19.68,25.87-2.84,6.22-4.92,12.56-4.08,19.68,1.19,10,9.61,16.54,18.47,17.56A29.56,29.56,0,0,0,482.3,184c4.34-2.28,8.49-4.91,13.12-7.6-1.94,3.28-3.68,6.35-5.54,9.36a9,9,0,0,1-6.23,4.63,23.84,23.84,0,0,0-4.61,1.49C470,195.58,460.86,199.06,452,203c-9.72,4.33-18.81,9.74-26.52,17.23-7.08,6.88-12.57,14.51-14.21,24.64a18.8,18.8,0,0,0,12.18,20.68,38.83,38.83,0,0,0,16.19,1.75A51.49,51.49,0,0,0,462.52,260c9.35-5.68,16.71-13.57,23.31-22.17a253.2,253.2,0,0,0,20.63-32.13c.92-1.67,1.82-3.7,3.32-4.64,2.81-1.78,6.12-2.73,9.09-4.3,7.54-4,15.1-8,22.47-12.27,3.86-2.25,7.35-5.13,11.09-7.78a19.18,19.18,0,0,0,12.07,8.45,34.17,34.17,0,0,0,23.06-3c2.7-1.32,5.23-3,8.2-4.72a12.85,12.85,0,0,1-.68,1.89c-1.3,2.37-2.6,4.74-4,7a4.66,4.66,0,0,1-1.86,1.69c-11.8,5.47-23.72,10.68-35.41,16.37-10.92,5.32-21,12-29.12,21.2-5.84,6.62-9.74,14-9.56,23.18.14,7.27,3.88,12.17,9.79,15.42,5.59,3.08,11.8,3.41,18.17,2.67a49.36,49.36,0,0,0,20.43-7.3,66.65,66.65,0,0,0,16.74-14.29c4.17-5.07,8.62-10,12.21-15.42,6.13-9.32,11.68-19,17.51-28.56,2.09-3.43,3.8-6.86,7.68-9.19,9.57-5.72,18.73-12.13,28-18.37,3.59-2.42,7-5.15,10.65-7.9-.66,5.19-.81,10,1.51,14.46,4.61,8.89,12.53,12.93,22,13.75,9.61.83,19.08-.24,27.72-5.22a35.94,35.94,0,0,0,14-14.23c4.86-9,6.81-18.73,6.8-28.88,0-4.9-.18-9.8-.46-14.69-.25-4.29-1.49-8.46-.81-12.86.78-5.08,3.84-8.06,8.92-8.13a25.81,25.81,0,0,0,6.48-.51c2.06-.56,4.5-1.4,5.75-2.94C751.38,102.7,749.35,94.7,745.23,91.72ZM341.46,111.1c3.21-7.06,6.45-14.11,9.91-21a199.87,199.87,0,0,1,16-26.19c4.55-6.4,9.26-12.68,14.93-18.15a44.53,44.53,0,0,1,5.49-4.48c1.56-1.09,2.8-.44,2.56,1.43a21.07,21.07,0,0,1-1.8,6.76c-3.46,6.85-6.82,13.8-10.92,20.27-5.68,9-11.83,17.66-18.1,26.23-3.91,5.34-8.38,10.25-12.65,15.31-2.28,2.69-4.67,5.28-7,7.89a15.27,15.27,0,0,1-1.33,1.21l-.5-.3C339.17,117.05,340.14,114,341.46,111.1Zm-77.59-1.5c2.05-4.91,4.25-9.76,6.64-14.51,5.08-10.12,10.67-20,17.84-28.77,2.73-3.34,5.57-6.64,9.46-8.78,2.05-1.14,3.58-1.08,4.13.39a2.85,2.85,0,0,1,0,1.91c-2,4.92-3.79,10-6.16,14.69a182.83,182.83,0,0,1-20.62,32.07c-5.11,6.39-10.53,12.53-15.83,18.77a19.45,19.45,0,0,1-1.6,1.54l-.49-.3C259.45,120.93,261.53,115.21,263.87,109.6Zm-91.71,38.76a7.1,7.1,0,0,1-1.4.33c.91-3.8,1.44-7.41,2.64-10.78a44.83,44.83,0,0,1,10.84-17.12,32.12,32.12,0,0,1,7.13-4.9c2.68-1.47,5.11.19,5,3.27-.14,3.83-1.86,7.15-3.88,10.28A59.12,59.12,0,0,1,172.16,148.36ZM466.7,222a123.45,123.45,0,0,1-9.3,9.7c-4.3,3.95-8.62,8-14.16,10.27a2.51,2.51,0,0,1-.93.34c-1.35,0-3.25.32-3.9-.41a4.69,4.69,0,0,1-.64-4.09,23,23,0,0,1,4-6.91c6.66-7.41,15.18-12.25,24-16.59,3.29-1.62,6.65-3.1,10-4.65l.48.62C473.07,214.21,470,218.22,466.7,222Zm102.19.74a146.76,146.76,0,0,1-10.07,10.94c-3.4,3.36-7,6.6-11.37,8.69-1.58.75-3.25,1.53-4.71.21-1.69-1.52-.87-3.48-.2-5.22,2-5.05,5.92-8.61,9.82-12a98.19,98.19,0,0,1,20-13.2c1.7-.88,3.49-1.57,5.24-2.35l.49.59C575.06,214.51,572.16,218.78,568.89,222.75Zm134.52-75.59c-1.58,6.93-4.1,13.59-9.44,18.71a10.84,10.84,0,0,1-8.49,3c-1.53-.09-2.89-2.16-3.05-4.27a21.24,21.24,0,0,0-.69-5.2c-1.27-3.69-4.54-4.49-8-4.87-.54-.06-1.09,0-2,0L707.1,122l.88.43C706.49,130.69,705.27,139,703.41,147.16Z"/><path class="cls-1" d="M125.92,216.47a7.73,7.73,0,0,1-5.17-3.28,20.4,20.4,0,0,1-3.56-12.85,124.12,124.12,0,0,1,2.6-18.8c2.58-12,5.91-23.91,8.35-36a43,43,0,0,0-.58-18,33.55,33.55,0,0,0-6.44-12.88c.91-.39,1.54-.61,2.12-.91,5.66-3,11.5-5.65,16.93-9,7.57-4.66,15-9.58,22.19-14.84,8-5.9,15.86-12.16,23.53-18.56,7.23-6,14.24-12.35,21.17-18.74,3.75-3.46,7.15-7.3,10.67-11C225,34,229.06,25.14,227.82,14.36,227.15,8.53,224.38,4,219,1.44S208.2,0,203,2.48c-8.53,4-14.6,10.73-19.84,18.36-4.11,6-8.29,11.92-12.64,17.74-5.05,6.76-10.19,13.46-15.52,20-4.87,6-9.78,12-15.15,17.52C134,82.2,127.68,88,121.26,93.54c-5.32,4.62-11.32,8.29-18.35,9.88-1.71.38-3.47.54-5.21.8C103.48,94.11,109.4,84.5,115.51,75c5.2-8.08,10.56-16.07,16-24,1.93-2.84,4.26-5.43,5-8.9.92-4.25.1-7.77-4.91-8.73A15.33,15.33,0,0,0,121,35c-5.27,3-10.26,6.44-15.45,9.57-11.71,7-23.38,14.18-35.25,21C59.18,71.82,47.79,77.57,36.7,83.87,28.1,88.75,19.82,94.17,13,101.44c-5.44,5.79-8.74,12.49-7.33,20.71C6.49,127.08,9,131,13.74,133c6.15,2.53,11.88.79,17.24-2.59a52.55,52.55,0,0,0,12.67-11c3.19-3.87,6.68-7.52,9.7-11.52,5.75-7.64,11.38-15.35,19.22-21.06A52.61,52.61,0,0,1,78.73,83c2.22-1.18,3.24-.41,3.18,2.14a2.79,2.79,0,0,1-.07,1c-1.07,2.53-1.85,5.27-3.33,7.53-4,6.07-8,12.13-12.51,17.84a233.41,233.41,0,0,1-16.07,18.86c-8.92,9.19-18.25,18-27.53,26.82-5.66,5.39-11.46,10.62-16.1,17C2,180.08-.82,186.44.22,194.08,1,199.57,3.38,204,8,207c6.9,4.53,14.28,4.49,21.68,1.34,7.9-3.36,13.91-9.19,18.74-16,5.3-7.53,10.13-15.41,14.93-23.27,3.09-5.05,5.78-10.33,8.62-15.52q6.36-11.61,12.68-23.24c1.91-3.52,3.73-7.08,5.77-11a35.47,35.47,0,0,1,3.06,3.28c3,4.14,3,8.91,1.74,13.44-2,7.05-4.48,13.94-6.84,20.87C85.89,164.12,83,171.18,81,178.48c-2.49,8.87-4,18-2.72,27.27a25.87,25.87,0,0,0,7.1,15.1c8.62,8.91,19,12.2,31.07,9.36,5-1.19,9.75-3.34,12.19-8.55C130.08,218.45,129.46,217.13,125.92,216.47Z"/><path class="cls-1" d="M671.11,79.58c2.57,2.92,2.72,4.74.45,8-.43.6-1,1.1-1.45,1.7a28.7,28.7,0,0,0-2.75,4c-1.33,2.71-.1,5.39,2.6,5.74a11.28,11.28,0,0,0,4.45-.23c9.41-2.67,16.63-8.45,22.4-16.2,3.61-4.85,5.33-10.37,5.86-17.24a41.88,41.88,0,0,0-1.43-6c-2.57-6.76-9.83-10.22-16.91-9-8.4,1.49-14,6.34-17.43,13.87-1.77,3.9-1.71,7.87,1.08,11.46C669,76.94,670,78.32,671.11,79.58Z"/><path class="cls-1" d="M759.05,85.36a7.39,7.39,0,1,0,7.39,7.38A7.38,7.38,0,0,0,759.05,85.36Zm0,13.33a5.95,5.95,0,1,1,6-6A6,6,0,0,1,759.05,98.69Z"/><path class="cls-1" d="M756.3,96.27v-7h3a5,5,0,0,1,1.64.19,1.58,1.58,0,0,1,.82.67,2,2,0,0,1,.31,1.11,1.83,1.83,0,0,1-.47,1.31,2.2,2.2,0,0,1-1.39.66,3.13,3.13,0,0,1,.76.59,7.6,7.6,0,0,1,.81,1.14l.86,1.38h-1.7l-1-1.54a8.74,8.74,0,0,0-.75-1,1.09,1.09,0,0,0-.43-.3,2.42,2.42,0,0,0-.71-.08h-.29v3Zm1.42-4.07h1a5.26,5.26,0,0,0,1.28-.09.71.71,0,0,0,.4-.3.86.86,0,0,0,.14-.52.85.85,0,0,0-.19-.58.88.88,0,0,0-.53-.28c-.12,0-.46,0-1,0h-1.11Z"/></g></g></svg>