<?xml version="1.0" encoding="iso-8859-1"?>
<!-- Generator: Adobe Illustrator 19.1.1, SVG Export Plug-In . SVG Version: 6.00 Build 0)  -->
<svg xmlns="http://www.w3.org/2000/svg" xmlns:xlink="http://www.w3.org/1999/xlink" version="1.1" id="Layer_1" x="0px" y="0px" viewBox="0 0 48 48" style="enable-background:new 0 0 48 48;" xml:space="preserve">
<path style="fill:#0288D1;" d="M35.038,31.782c-0.078-0.18-0.255-0.296-0.451-0.296H13.582c-0.196,0-0.373,0.116-0.451,0.296  c-0.078,0.18-0.041,0.389,0.093,0.532C15.27,34.492,16,45,16,45h1h1h12h1h1c0.43-6.187,0.9-10.508,2.945-12.686  C35.079,32.171,35.116,31.962,35.038,31.782z"/>
<g>
	<path style="fill:#FFFFFF;" d="M28,45c0.257-7.111,1.035-11.026,2-13H18c0.964,1.974,1.744,5.889,2,13H28z"/>
</g>
<path style="fill:#CFD8DC;" d="M24,38c1.039,0,3.027-0.105,4.594-0.494C28.961,34.885,29.45,33.125,30,32H18  c0.545,1.116,1.031,2.853,1.397,5.436C20.942,37.794,22.97,38,24,38z"/>
<g>
	<path style="fill:#81D4FA;" d="M41,23c0,7.063-8.094,12-17,12c-8.906,0-17-5-17-12c0-6.777,8.094-15,17-15   C32.906,8,41,16.223,41,23z"/>
</g>
<g>
	<path style="fill:#29B6F6;" d="M41,23c0,7.125-8.094,12-17,12c-8.906,0-17-4.938-17-12c0-6.777,8.135-12,17.041-12   C32.947,11,41,16.223,41,23z"/>
</g>
<g>
	<path style="fill:#0288D1;" d="M41,22.915C41,30.125,34,35,24.085,35C14,35,7,30,7,22.915C7,15.333,8,27,24,27S41,15.458,41,22.915   z"/>
</g>
<path style="fill:#FFFFFF;" d="M29.563,27.876c-0.886-0.869-2.685-0.864-4.961-0.86l-0.516,0.001l-0.516-0.001  c-2.279-0.004-4.074-0.009-4.961,0.86c-0.347,0.34-0.523,0.787-0.523,1.328c0,2.137,2.635,3.811,6,3.811c3.365,0,6-1.674,6-3.811  C30.085,28.662,29.909,28.216,29.563,27.876z"/>
<path style="fill:#CFD8DC;" d="M44.508,12.211C43.652,11.57,41.95,12.565,41,13.453c0.002-0.138,0.003-0.721,0.003-0.857  C41.003,7.874,40.31,3,38.205,3C36.101,3,36,7.779,36,12.5s-0.104,9.507,2,9.507c0.007,0-0.002,0,0,0  c1.308,0,3.492-1.509,4.831-3.449c0.878-1.27,1.555-2.583,1.907-3.698C45.262,13.205,44.902,12.506,44.508,12.211z"/>
<path style="fill:#ECEFF1;" d="M43.508,14.204c-0.856-0.642-2.558,0.354-3.508,1.242c0.002-0.138,0.003-0.721,0.003-0.857  c0-4.721-0.693-9.596-2.798-9.596C36,4.993,36,10.02,36,12.5c0,4.721-0.104,9.507,2,9.507c1.308,0,3.492-1.509,4.831-3.449  c0.232-0.336,0.448-0.675,0.65-1.013c0.095-0.235,0.187-0.47,0.257-0.692C44.262,15.198,43.902,14.499,43.508,14.204z"/>
<path style="fill:#CFD8DC;" d="M3.492,12.211C4.348,11.57,6.05,12.565,7,13.453c-0.002-0.138-0.003-0.721-0.003-0.857  C6.997,7.874,7.69,3,9.795,3C11.899,3,12,7.779,12,12.5s0.104,9.507-2,9.507c-0.007,0,0.002,0,0,0c-1.308,0-3.492-1.509-4.831-3.449  c-0.878-1.27-1.555-2.583-1.907-3.698C2.738,13.205,3.098,12.506,3.492,12.211z"/>
<path style="fill:#ECEFF1;" d="M4.492,14.204C5.348,13.563,7.05,14.558,8,15.446c-0.002-0.138-0.003-0.721-0.003-0.857  c0-4.721,0.693-9.596,2.798-9.596C12,4.993,12,10.02,12,12.5c0,4.721,0.104,9.507-2,9.507c-1.308,0-3.492-1.509-4.831-3.449  c-0.232-0.336-0.448-0.675-0.65-1.013c-0.095-0.235-0.187-0.47-0.257-0.692C3.738,15.198,4.098,14.499,4.492,14.204z"/>
<g>
	<circle style="fill:#FFFFFF;" cx="24" cy="18" r="2"/>
</g>
<g>
	<path style="fill:#ECEFF1;" d="M22,18c0-1.104,0.895-2,2-2s2,0.896,2,2H22z"/>
</g>
<circle style="fill:#37474F;" cx="16" cy="24" r="3"/>
<g>
	<circle style="fill:#FFFFFF;" cx="15" cy="23" r="1"/>
</g>
<circle style="fill:#37474F;" cx="32" cy="24" r="3"/>
<g>
	<circle style="fill:#FFFFFF;" cx="31" cy="23" r="1"/>
</g>
<path style="fill:#CFD8DC;" d="M27.922,27.173c-0.904-0.156-2.032-0.159-3.321-0.157l-0.516,0.001l-0.516-0.001  c-1.366-0.002-2.554-0.001-3.481,0.184C20.489,27.78,22.243,29,24,29C25.734,29,27.556,27.739,27.922,27.173z"/>
</svg>
