<?xml version="1.0" encoding="iso-8859-1"?>
<!-- Generator: Adobe Illustrator 19.1.1, SVG Export Plug-In . SVG Version: 6.00 Build 0)  -->
<svg xmlns="http://www.w3.org/2000/svg" xmlns:xlink="http://www.w3.org/1999/xlink" version="1.1" id="Layer_1" x="0px" y="0px" viewBox="0 0 48 48" style="enable-background:new 0 0 48 48;" xml:space="preserve">
<circle style="fill:#FFD600;" cx="24" cy="24" r="20"/>
<path style="fill:#FFEA00;" d="M42.836,17.329c-0.224-0.632-0.478-1.248-0.762-1.849l-13.833,5.693l10.575-10.575  c-0.448-0.495-0.919-0.966-1.414-1.414L26.869,19.717l5.733-13.752c-0.6-0.287-1.215-0.543-1.846-0.77L25,19.002V4.05  C24.667,4.034,24.338,4,24,4s-0.667,0.034-1,0.05v14.892L17.329,5.164c-0.632,0.224-1.248,0.478-1.849,0.762l5.693,13.833  L10.599,9.185c-0.495,0.448-0.966,0.919-1.414,1.414l10.532,10.532L5.965,15.398c-0.287,0.6-0.543,1.215-0.77,1.846L19.002,23H4.05  C4.034,23.333,4,23.662,4,24s0.034,0.667,0.05,1h14.892L5.164,30.671c0.224,0.632,0.478,1.248,0.762,1.849l13.833-5.693  L9.185,37.401c0.448,0.495,0.919,0.966,1.414,1.414l10.532-10.532l-5.733,13.752c0.6,0.287,1.215,0.543,1.846,0.77L23,28.998V43.95  c0.333,0.017,0.662,0.05,1,0.05s0.667-0.034,1-0.05V29.057l5.671,13.779c0.632-0.224,1.248-0.478,1.849-0.762l-5.693-13.833  l10.575,10.575c0.495-0.448,0.966-0.919,1.414-1.414L28.283,26.869l13.752,5.733c0.287-0.6,0.543-1.215,0.77-1.846L28.998,25H43.95  c0.017-0.333,0.05-0.662,0.05-1s-0.034-0.667-0.05-1H29.057L42.836,17.329z"/>
<circle style="fill:#FFAB00;" cx="24" cy="24" r="16"/>
<circle style="fill:#FF3D00;" cx="27" cy="27" r="2"/>
<path style="fill:#FFD600;" d="M19,13c0,0-0.436,8.821,7.135,11.592C26.666,17.274,19,13,19,13z"/>
<path style="fill:#5D4037;" d="M19.434,16.716l2.67-1.335C20.485,13.83,19,13,19,13S18.923,14.635,19.434,16.716z"/>
<path style="fill:#FFEA00;" d="M24.5,20.291c-4.125,0-7.5,3.375-7.5,7.5v10.58C19.117,39.404,21.486,40,24,40  c2.918,0,5.645-0.794,8-2.158V27.791C32,23.666,28.625,20.291,24.5,20.291z"/>
<path style="fill:#FFEA00;" d="M31,24c0,0,1.687,3.75,3,4c0,2.063-1.063,4.375-3,6"/>
<path style="fill:#5D4037;" d="M30,26c-0.552,0-1,0.449-1,1h2C31,26.449,30.552,26,30,26z"/>
<circle style="fill:#FF3D00;" cx="28" cy="30" r="2"/>
<g>
	<path style="fill:#5D4037;" d="M21,36c0-0.55-0.45-1-1-1h-3v2h3C20.55,37,21,36.55,21,36z"/>
	<path style="fill:#5D4037;" d="M20,32h-3v2h3c0.55,0,1-0.45,1-1S20.55,32,20,32z"/>
</g>
<circle style="fill:#5D4037;" cx="34" cy="28" r="1"/>
<path style="fill:#FBC02D;" d="M23,25c-1.167-1.57-2.707-2.423-3.49-2.785c-1.026,0.92-1.801,2.113-2.201,3.466  C18.546,25.418,20.568,25.075,23,25z"/>
<path style="fill:#FFEA00;" d="M13,15c0,0,2,9,10,10C21.875,17.75,13,15,13,15z"/>
<path style="fill:#5D4037;" d="M16.43,16.57C14.549,15.487,13,15,13,15s0.37,1.639,1.407,3.593L16.43,16.57z"/>
</svg>
