<?xml version="1.0" encoding="iso-8859-1"?>
<!-- Generator: Adobe Illustrator 19.1.1, SVG Export Plug-In . SVG Version: 6.00 Build 0)  -->
<svg xmlns="http://www.w3.org/2000/svg" xmlns:xlink="http://www.w3.org/1999/xlink" version="1.1" id="Layer_1" x="0px" y="0px" viewBox="0 0 48 48" style="enable-background:new 0 0 48 48;" xml:space="preserve">
<path style="fill:#D7CCC8;" d="M23.975,23c-9.374,0-17,4.529-17,10.097c0,5.505,7.426,11.903,17,11.903s17-6.399,17-11.903  C40.975,27.529,33.349,23,23.975,23z"/>
<path style="fill:#D7CCC8;" d="M30.515,15.387L28.975,12l-2.404,1l-2.596-3l-2.592,3l-2.408-1l-1.535,3.385  c-6.144,2.664-10.465,8.707-10.465,13.969c0,6.983,7.611,12.646,17,12.646s16.466-5.683,17-12.646  C41.368,24.231,37.107,18.21,30.515,15.387z"/>
<g>
	<path style="fill:#BCAAA4;" d="M40.975,29.066c0,7.143-7.611,12.934-17,12.934s-17-5.792-17-12.934c0-4.943,3.5-10.003,9-12.291   c0,2.288,1,2.225,8,2.225s8.001,0.063,8.001-2.225C37.787,18.875,40.975,24.123,40.975,29.066z"/>
</g>
<g>
	<path style="fill:#D7CCC8;" d="M26.975,30.508c0,0.417-1.343,0.492-3,0.492s-3-0.075-3-0.492c0-0.418,1.343-1.508,3-1.508   C25.632,29,26.975,30.09,26.975,30.508z"/>
</g>
<g>
	<path style="fill:#A1887F;" d="M40.975,29.301c0,7.013-7.611,12.699-17,12.699s-17-5.687-17-12.699c0-7.015,2.163,5.699,17,5.699   S40.975,22.286,40.975,29.301z"/>
</g>
<g>
	<path style="fill:#BCAAA4;" d="M38.975,13c0.042,4.056-1.723,8.2-4,10h-4c0,0,0.019-8.114,0-10c-0.042-4.056,1.723-8.201,4-10   C37.299,5.75,38.933,8.944,38.975,13z"/>
</g>
<g>
	<path style="fill:#A1887F;" d="M34.975,3c2.324,2.749,3.958,5.944,4,10c0.042,4.056-1.723,8.2-4,10V3z"/>
</g>
<g>
	<path style="fill:#5D4037;" d="M36.975,16.5c0.02,1.918-0.924,3.649-2,4.5c-1.098-1.3-1.981-2.583-2-4.5   c-0.02-1.918,0.924-3.649,2-4.5C36.073,13.3,36.955,14.583,36.975,16.5z"/>
</g>
<g>
	<path style="fill:#BCAAA4;" d="M13,3c2.277,1.799,4.042,5.944,4,10c-0.019,1.886,0,10,0,10h-4c-2.277-1.8-4.042-5.944-4-10   C9.042,8.944,10.676,5.75,13,3z"/>
</g>
<g>
	<path style="fill:#A1887F;" d="M13,23c-2.277-1.8-4.042-5.944-4-10c0.042-4.056,1.676-7.251,4-10V23z"/>
</g>
<g>
	<path style="fill:#5D4037;" d="M13,12c1.076,0.851,2.02,2.582,2,4.5c-0.019,1.917-0.902,3.2-2,4.5c-1.076-0.851-2.02-2.582-2-4.5   C11.02,14.583,11.902,13.3,13,12z"/>
</g>
<g>
	<polygon style="fill:#BCAAA4;" points="26.458,16.438 23.975,14 21.491,16.438 18.975,15 16.975,18 16.975,19 16.975,20    23.975,19.986 30.975,20 30.975,19 30.975,18 28.975,15  "/>
</g>
<circle style="fill:#5D4037;" cx="15.975" cy="30" r="3"/>
<g>
	<circle style="fill:#FFFFFF;" cx="14.975" cy="29" r="1"/>
</g>
<circle style="fill:#5D4037;" cx="31.975" cy="30" r="3"/>
<g>
	<circle style="fill:#FFFFFF;" cx="30.975" cy="29" r="1"/>
</g>
<path style="fill:none;stroke:#3E2723;stroke-width:2;stroke-linecap:round;stroke-miterlimit:10;" d="M28,34c0,1.1-0.9,2-2,2h0  c-1.1,0-2-0.9-2-2"/>
<path style="fill:none;stroke:#3E2723;stroke-width:2;stroke-linecap:round;stroke-miterlimit:10;" d="M24,34c0,1.1-0.9,2-2,2h0  c-1.1,0-2-0.9-2-2"/>
<polygon style="fill:#3E2723;" points="22,32 26,32 26,33 25,34 23,34 22,33 "/>
</svg>
