<?xml version="1.0" encoding="utf-8"?>
<!-- Generator: Adobe Illustrator 16.0.0, SVG Export Plug-In . SVG Version: 6.00 Build 0)  -->
<!DOCTYPE svg PUBLIC "-//W3C//DTD SVG 1.1//EN" "http://www.w3.org/Graphics/SVG/1.1/DTD/svg11.dtd">
<svg version="1.1" id="Capa_1" xmlns="http://www.w3.org/2000/svg" xmlns:xlink="http://www.w3.org/1999/xlink" x="0px" y="0px"
	 width="217.771px" height="92.613px" viewBox="400.848 732.781 217.771 92.613"
	 enable-background="new 400.848 732.781 217.771 92.613" xml:space="preserve">
<path fill="#EE6600" d="M617.221,783.408c0.053-0.074,0.109-0.146,0.159-0.223c0.084-0.127,0.159-0.256,0.234-0.385
	c0.05-0.086,0.101-0.17,0.146-0.256c0.063-0.119,0.118-0.24,0.174-0.363c0.047-0.102,0.096-0.201,0.138-0.305
	c0.044-0.109,0.081-0.221,0.12-0.33c0.015-0.043,0.031-0.084,0.045-0.125c0.016-0.047,0.035-0.092,0.05-0.139
	c0.01-0.029,0.016-0.061,0.025-0.092c0.03-0.104,0.054-0.209,0.079-0.313c0.011-0.041,0.022-0.084,0.032-0.125
	c0.014-0.061,0.033-0.119,0.045-0.18c0.006-0.025,0.008-0.053,0.013-0.078c0.021-0.107,0.034-0.215,0.05-0.324
	c0.016-0.105,0.037-0.209,0.048-0.314c0.002-0.023,0.003-0.049,0.005-0.072c0.011-0.117,0.014-0.234,0.019-0.352
	c0.005-0.104,0.015-0.207,0.015-0.309c0-0.014,0.002-0.025,0.002-0.037c0-0.01-0.002-0.02-0.002-0.029
	c0-0.125-0.011-0.25-0.018-0.375c-0.005-0.096-0.007-0.191-0.016-0.287c-0.002-0.023-0.002-0.049-0.004-0.072
	c-0.014-0.125-0.037-0.25-0.057-0.377c-0.014-0.084-0.023-0.17-0.039-0.256c-0.029-0.148-0.067-0.297-0.105-0.445
	c-0.021-0.084-0.039-0.166-0.063-0.25c-0.041-0.139-0.091-0.275-0.141-0.412c-0.032-0.092-0.063-0.184-0.099-0.273
	c-0.049-0.121-0.105-0.238-0.161-0.357c-0.049-0.104-0.096-0.209-0.148-0.311c-0.054-0.102-0.114-0.201-0.173-0.301
	c-0.067-0.115-0.134-0.229-0.207-0.34c-0.06-0.09-0.124-0.176-0.188-0.262c-0.083-0.115-0.166-0.229-0.256-0.338
	c-0.021-0.025-0.037-0.053-0.059-0.078c-0.057-0.068-0.118-0.125-0.177-0.189c-0.083-0.094-0.166-0.188-0.255-0.275
	c-0.004-0.004-0.008-0.008-0.012-0.012c-0.101-0.102-0.206-0.195-0.312-0.289c-0.055-0.049-0.104-0.102-0.159-0.148l-46.354-38.895
	c-3.135-2.631-7.811-2.223-10.441,0.912c-2.631,3.137-2.222,7.811,0.914,10.441l30.756,25.809H408.259
	c-4.087,0-7.411,3.324-7.411,7.41c0,4.088,3.324,7.412,7.411,7.412h182.586l-30.755,25.807c-3.135,2.629-3.544,7.305-0.914,10.439
	c2.631,3.137,7.307,3.545,10.442,0.914l46.354-38.895c0.061-0.051,0.114-0.107,0.173-0.16c0.097-0.088,0.194-0.174,0.287-0.266
	c0.009-0.01,0.018-0.018,0.027-0.027c0.095-0.094,0.182-0.193,0.271-0.293c0.051-0.057,0.105-0.109,0.155-0.168
	c0.013-0.016,0.023-0.031,0.036-0.047c0.007-0.008,0.013-0.018,0.019-0.025C617.039,783.658,617.13,783.533,617.221,783.408z"/>
</svg>
