<?xml version="1.0" encoding="utf-8"?>
<!-- Generator: Adobe Illustrator 22.0.1, SVG Export Plug-In . SVG Version: 6.00 Build 0)  -->
<svg version="1.1" id="Capa_1" xmlns="http://www.w3.org/2000/svg" xmlns:xlink="http://www.w3.org/1999/xlink" x="0px" y="0px"
	 viewBox="0 0 1287 290" style="enable-background:new 0 0 1287 290;" xml:space="preserve">
<style type="text/css">
	.st0{fill:#EE6600;}
</style>
<path class="st0" d="M1112,290c-3.5,0-6.9-1.4-9.4-3.9c-5-5-5.1-13.3-0.2-18.5l142.1-109.4H13.1c-7.2,0-13.1-6-13.1-13.3
	c0-7.3,5.8-13.1,13.1-13.1h1231.4L1102.3,22.1c-2.3-2.4-3.6-5.5-3.6-8.9c0-3.5,1.3-6.8,3.8-9.3c2.5-2.5,5.9-3.9,9.4-3.9
	c3.5,0,6.8,1.4,9.2,3.9l0.2,0.2L1283.3,136c2.4,2.4,3.7,5.5,3.7,8.9c0,3.4-1.3,6.7-3.7,9.1l-161.8,131.8l-0.2,0.2
	C1118.8,288.6,1115.5,290,1112,290z"/>
</svg>
