<?xml version="1.0" encoding="utf-8"?>
<!-- Generator: Adobe Illustrator 16.0.0, SVG Export Plug-In . SVG Version: 6.00 Build 0)  -->
<!DOCTYPE svg PUBLIC "-//W3C//DTD SVG 1.1//EN" "http://www.w3.org/Graphics/SVG/1.1/DTD/svg11.dtd">
<svg version="1.1" id="Layer_1" xmlns="http://www.w3.org/2000/svg" xmlns:xlink="http://www.w3.org/1999/xlink" x="0px" y="0px"
	 width="789.358px" height="168.017px" viewBox="0 465.302 789.358 168.017" enable-background="new 0 465.302 789.358 168.017"
	 xml:space="preserve">
<g>
	<path fill="#EE6600" d="M92.332,498.067l-13.791,27.96l-30.854,4.499c-5.533,0.802-7.75,7.623-3.737,11.53l22.322,21.751
		l-5.28,30.728c-0.95,5.554,4.9,9.715,9.799,7.117l27.602-14.509l27.602,14.509c4.9,2.576,10.75-1.563,9.799-7.117l-5.28-30.728
		l22.322-21.751c4.013-3.907,1.795-10.729-3.738-11.53l-30.854-4.499l-13.791-27.96C101.983,493.082,94.823,493.02,92.332,498.067
		L92.332,498.067z"/>
	<path fill="#EE6600" d="M243.135,498.067l-13.79,27.96l-30.854,4.499c-5.533,0.802-7.75,7.623-3.738,11.53l22.322,21.751
		l-5.28,30.728c-0.95,5.554,4.9,9.715,9.799,7.117l27.602-14.509l27.602,14.509c4.899,2.576,10.749-1.563,9.799-7.117l-5.28-30.728
		l22.322-21.751c4.013-3.907,1.795-10.729-3.738-11.53l-30.854-4.499l-13.791-27.96C252.786,493.082,245.627,493.02,243.135,498.067
		L243.135,498.067z"/>
	<path fill="#EE6600" d="M393.939,498.067l-13.791,27.96l-30.854,4.499c-5.533,0.802-7.751,7.623-3.738,11.53l22.322,21.751
		l-5.279,30.728c-0.95,5.554,4.899,9.715,9.799,7.117l27.603-14.509l27.601,14.509c4.899,2.576,10.751-1.563,9.8-7.117
		l-5.279-30.728l22.322-21.751c4.012-3.907,1.795-10.729-3.738-11.53l-30.854-4.499l-13.791-27.96
		C403.592,493.082,396.431,493.02,393.939,498.067L393.939,498.067z"/>
	<path fill="#EE6600" d="M544.743,498.067l-13.791,27.96l-30.854,4.499c-5.533,0.802-7.75,7.623-3.738,11.53l22.322,21.751
		l-5.279,30.728c-0.951,5.554,4.9,9.715,9.799,7.117l27.602-14.509l27.602,14.509c4.9,2.576,10.75-1.563,9.799-7.117l-5.279-30.728
		l22.322-21.751c4.012-3.907,1.795-10.729-3.738-11.53l-30.854-4.499l-13.791-27.96C554.394,493.082,547.236,493.02,544.743,498.067
		L544.743,498.067z"/>
	<path fill="#EE6600" d="M695.546,498.067l-13.789,27.96l-30.855,4.499c-5.531,0.802-7.75,7.623-3.736,11.53l22.322,21.751
		l-5.281,30.728c-0.949,5.554,4.9,9.715,9.801,7.117l27.602-14.509l27.602,14.509c4.898,2.576,10.748-1.563,9.797-7.117
		l-5.279-30.728l22.322-21.751c4.014-3.907,1.795-10.729-3.738-11.53l-30.854-4.499l-13.789-27.96
		C705.198,493.082,698.038,493.02,695.546,498.067L695.546,498.067z"/>
</g>
</svg>
